<svg width="375" height="812" viewBox="0 0 375 812" fill="none" xmlns="http://www.w3.org/2000/svg">
<g clip-path="url(#clip0_2101_6804)">
<rect width="375" height="812" rx="30" fill="white"/>
<path fill-rule="evenodd" clip-rule="evenodd" d="M375 56L354 47C333 38 292 19 250 13C208 8 167 15 125 15C83 15 42 8 21 4L0 0H21C42 0 83 0 125 0C167 0 208 0 250 0C292 0 333 0 354 0H375V56Z" fill="#FFB800"/>
<path fill-rule="evenodd" clip-rule="evenodd" d="M0 720L12.5 733.417C25 746.833 50 773.667 75 779.417C100 785.167 125 769.833 150 756.417C175 743 200 731.5 225 739.167C250 746.833 275 773.667 300 773.667C325 773.667 350 746.833 362.5 733.417L375 720V812H362.5C350 812 325 812 300 812C275 812 250 812 225 812C200 812 175 812 150 812C125 812 100 812 75 812C50 812 25 812 12.5 812H0V720Z" fill="#FFB800"/>
<rect opacity="0.35" x="332.833" y="19.8334" width="21" height="10.3333" rx="2.16667" stroke="#1B1E28"/>
<path opacity="0.4" d="M355.333 23.0001V27.0001C356.138 26.6613 356.661 25.8732 356.661 25.0001C356.661 24.1269 356.138 23.3388 355.333 23.0001Z" fill="#1B1E28"/>
<rect x="334.333" y="21.3334" width="18" height="7.33333" rx="1.33333" fill="#1B1E28"/>
<path fill-rule="evenodd" clip-rule="evenodd" d="M319.872 22.2845C322.011 22.2846 324.069 23.1387 325.619 24.6703C325.736 24.7885 325.922 24.787 326.037 24.6669L327.153 23.4966C327.212 23.4357 327.244 23.3532 327.244 23.2673C327.243 23.1815 327.21 23.0994 327.151 23.0392C323.082 18.9869 316.662 18.9869 312.593 23.0392C312.534 23.0993 312.501 23.1814 312.5 23.2673C312.499 23.3531 312.532 23.4356 312.59 23.4966L313.706 24.6669C313.821 24.7872 314.008 24.7887 314.125 24.6703C315.675 23.1386 317.733 22.2845 319.872 22.2845ZM319.872 26.0921C321.048 26.092 322.181 26.5459 323.052 27.3657C323.17 27.4821 323.356 27.4795 323.47 27.36L324.585 26.1897C324.644 26.1283 324.676 26.045 324.676 25.9585C324.675 25.872 324.641 25.7894 324.581 25.7293C321.928 23.1649 317.819 23.1649 315.166 25.7293C315.106 25.7894 315.072 25.872 315.071 25.9586C315.07 26.0451 315.103 26.1284 315.162 26.1897L316.276 27.36C316.391 27.4795 316.577 27.4821 316.694 27.3657C317.565 26.5465 318.698 26.0926 319.872 26.0921ZM322.105 28.6539C322.106 28.7407 322.074 28.8243 322.014 28.8851L320.086 30.9071C320.029 30.9665 319.952 31 319.872 31C319.791 31 319.714 30.9665 319.658 30.9071L317.729 28.8851C317.67 28.8243 317.637 28.7406 317.639 28.6538C317.641 28.567 317.677 28.4849 317.739 28.4267C318.97 27.3444 320.774 27.3444 322.005 28.4267C322.067 28.4849 322.103 28.5671 322.105 28.6539Z" fill="#1B1E28"/>
<path fill-rule="evenodd" clip-rule="evenodd" d="M305.77 20H304.808C304.277 20 303.846 20.4477 303.846 21V29.6667C303.846 30.219 304.277 30.6667 304.808 30.6667H305.77C306.301 30.6667 306.731 30.219 306.731 29.6667V21C306.731 20.4477 306.301 20 305.77 20ZM300.321 22.3333H301.282C301.813 22.3333 302.244 22.7811 302.244 23.3333V29.6667C302.244 30.219 301.813 30.6667 301.282 30.6667H300.321C299.79 30.6667 299.359 30.219 299.359 29.6667V23.3333C299.359 22.7811 299.79 22.3333 300.321 22.3333ZM296.795 24.6667H295.833C295.302 24.6667 294.872 25.1144 294.872 25.6667V29.6667C294.872 30.219 295.302 30.6667 295.833 30.6667H296.795C297.326 30.6667 297.756 30.219 297.756 29.6667V25.6667C297.756 25.1144 297.326 24.6667 296.795 24.6667ZM292.308 26.6667H291.346C290.815 26.6667 290.385 27.1144 290.385 27.6667V29.6667C290.385 30.219 290.815 30.6667 291.346 30.6667H292.308C292.839 30.6667 293.269 30.219 293.269 29.6667V27.6667C293.269 27.1144 292.839 26.6667 292.308 26.6667Z" fill="#1B1E28"/>
<path d="M36.7646 18.1675C34.4722 18.1675 32.8389 19.7349 32.8389 21.8809V21.8955C32.8389 23.9023 34.2598 25.3818 36.2886 25.3818C37.7388 25.3818 38.6616 24.6421 39.0498 23.8071H39.1963C39.1963 23.8877 39.189 23.9683 39.189 24.0488C39.1084 26.0703 38.3979 27.7109 36.7207 27.7109C35.7905 27.7109 35.1387 27.2275 34.8604 26.4878L34.8384 26.4146H32.978L32.9927 26.4951C33.3296 28.1138 34.7798 29.2637 36.7207 29.2637C39.3794 29.2637 40.9834 27.1543 40.9834 23.5947V23.5801C40.9834 19.7715 39.0205 18.1675 36.7646 18.1675ZM36.7573 23.9316C35.5562 23.9316 34.6846 23.0527 34.6846 21.8296V21.8149C34.6846 20.6357 35.6147 19.7056 36.7793 19.7056C37.9512 19.7056 38.8667 20.6504 38.8667 21.8589V21.8735C38.8667 23.0674 37.9512 23.9316 36.7573 23.9316ZM44.3086 22.1519C44.9824 22.1519 45.4731 21.6392 45.4731 20.9946C45.4731 20.3428 44.9824 19.8374 44.3086 19.8374C43.6421 19.8374 43.144 20.3428 43.144 20.9946C43.144 21.6392 43.6421 22.1519 44.3086 22.1519ZM44.3086 27.5864C44.9824 27.5864 45.4731 27.0811 45.4731 26.4292C45.4731 25.7773 44.9824 25.272 44.3086 25.272C43.6421 25.272 43.144 25.7773 43.144 26.4292C43.144 27.0811 43.6421 27.5864 44.3086 27.5864ZM52.7607 29H54.5698V26.9712H55.9907V25.4111H54.5698V18.4312H51.8965C50.4609 20.6138 48.9595 23.0454 47.5898 25.4258V26.9712H52.7607V29ZM49.3477 25.4551V25.3452C50.373 23.5508 51.5962 21.5952 52.6802 19.9399H52.79V25.4551H49.3477ZM60.3706 29H62.2603V18.4312H60.3779L57.6167 20.3721V22.1519L60.2461 20.2915H60.3706V29Z" fill="#1B1E28"/>
<foreignObject x="-10" y="33" width="104" height="104"><div xmlns="http://www.w3.org/1999/xhtml" style="backdrop-filter:blur(15px);clip-path:url(#bgblur_1_2101_6804_clip_path);height:100%;width:100%"></div></foreignObject><circle data-figma-bg-blur-radius="30" cx="42" cy="85" r="22" fill="#F7F7F9"/>
<path fill-rule="evenodd" clip-rule="evenodd" d="M44.4685 79.4143C44.7919 79.6731 44.8444 80.145 44.5856 80.4685L40.9604 85L44.5856 89.5314C44.8444 89.8549 44.7919 90.3269 44.4685 90.5856C44.145 90.8444 43.6731 90.7919 43.4143 90.4685L39.4143 85.4685C39.1952 85.1946 39.1952 84.8054 39.4143 84.5314L43.4143 79.5314C43.6731 79.208 44.145 79.1556 44.4685 79.4143Z" fill="#1B1E28"/>
<path d="M102.145 252.376C96.7998 252.376 93.4482 256.02 93.4482 261.847C93.4482 267.674 96.7998 271.305 102.145 271.305C107.477 271.305 110.828 267.674 110.828 261.847C110.828 256.02 107.477 252.376 102.145 252.376ZM102.145 255.169C105.407 255.169 107.489 257.759 107.489 261.847C107.489 265.922 105.407 268.512 102.145 268.512C98.8691 268.512 96.7998 265.922 96.7998 261.847C96.7998 257.759 98.8691 255.169 102.145 255.169ZM120.21 271V255.448H125.771V252.681H111.374V255.448H116.935V271H120.21ZM127.992 252.681V271H131.268V264.944H135.241C138.948 264.944 141.538 262.469 141.538 258.812C141.538 255.156 139.012 252.681 135.381 252.681H127.992ZM131.268 255.359H134.518C136.866 255.359 138.212 256.616 138.212 258.812C138.212 261.034 136.854 262.304 134.505 262.304H131.268V255.359ZM158.613 271L164.986 252.681H161.457L156.811 267.483H156.734L152.088 252.681H148.482L154.855 271H158.613ZM171.296 259.396C173.175 259.396 174.47 260.717 174.533 262.723H167.957C168.097 260.742 169.442 259.396 171.296 259.396ZM174.546 266.874C174.178 268.017 172.997 268.74 171.474 268.74C169.354 268.74 167.932 267.255 167.932 265.021V264.83H177.644V263.789C177.644 259.587 175.181 256.934 171.296 256.934C167.322 256.934 164.771 259.752 164.771 264.119C164.771 268.486 167.31 271.203 171.41 271.203C174.647 271.203 177.11 269.438 177.517 266.874H174.546ZM179.776 271H182.938V262.951C182.938 260.996 184.055 259.79 185.908 259.79C186.454 259.79 186.949 259.866 187.216 259.968V257.099C186.975 257.022 186.619 256.972 186.2 256.972C184.562 256.972 183.318 257.911 182.874 259.536H182.811V257.124H179.776V271ZM189.006 271H192.167V257.124H189.006V271ZM190.58 255.359C191.57 255.359 192.357 254.598 192.357 253.62C192.357 252.63 191.57 251.881 190.58 251.881C189.603 251.881 188.803 252.63 188.803 253.62C188.803 254.598 189.603 255.359 190.58 255.359ZM195.849 271H199.01V259.574H201.6V257.124H198.972V256.02C198.972 254.928 199.441 254.458 200.571 254.458C200.952 254.458 201.308 254.496 201.587 254.56V252.262C201.117 252.173 200.609 252.135 200.051 252.135C197.067 252.135 195.849 253.252 195.849 255.88V257.124H193.957V259.574H195.849V271ZM203.885 271H207.046V257.124H203.885V271ZM205.459 255.359C206.449 255.359 207.236 254.598 207.236 253.62C207.236 252.63 206.449 251.881 205.459 251.881C204.481 251.881 203.682 252.63 203.682 253.62C203.682 254.598 204.481 255.359 205.459 255.359ZM221.988 262.037C221.772 259.181 219.5 256.934 215.869 256.934C211.857 256.934 209.255 259.714 209.255 264.056C209.255 268.486 211.87 271.203 215.895 271.203C219.36 271.203 221.734 269.21 222.001 266.176H219.018C218.726 267.75 217.608 268.626 215.92 268.626C213.838 268.626 212.467 266.938 212.467 264.056C212.467 261.263 213.825 259.511 215.907 259.511C217.685 259.511 218.776 260.577 219.005 262.037H221.988ZM228.971 268.728C227.498 268.728 226.533 268.017 226.533 266.899C226.533 265.77 227.447 265.109 229.174 264.995L232.348 264.792V265.846C232.348 267.534 230.888 268.728 228.971 268.728ZM228.044 271.152C229.885 271.152 231.599 270.251 232.36 268.766H232.437V271H235.471V261.491C235.471 258.736 233.224 256.934 229.758 256.934C226.495 256.934 224.134 258.749 224.058 261.288H226.978C227.193 260.171 228.222 259.422 229.656 259.422C231.357 259.422 232.348 260.222 232.348 261.694V262.71L228.742 262.926C225.251 263.142 223.359 264.551 223.359 267.026C223.359 269.489 225.314 271.152 228.044 271.152ZM239.013 254.026V257.124H237.121V259.574H239.013V267.318C239.013 269.997 240.181 271.063 243.126 271.063C243.799 271.063 244.446 271.013 244.789 270.937V268.512C244.586 268.537 244.154 268.575 243.85 268.575C242.707 268.575 242.174 268.029 242.174 266.887V259.574H244.802V257.124H242.174V254.026H239.013ZM247.125 271H250.286V257.124H247.125V271ZM248.699 255.359C249.689 255.359 250.477 254.598 250.477 253.62C250.477 252.63 249.689 251.881 248.699 251.881C247.722 251.881 246.922 252.63 246.922 253.62C246.922 254.598 247.722 255.359 248.699 255.359ZM259.173 271.203C263.286 271.203 265.863 268.486 265.863 264.056C265.863 259.663 263.261 256.934 259.173 256.934C255.11 256.934 252.495 259.676 252.495 264.056C252.495 268.486 255.085 271.203 259.173 271.203ZM259.173 268.677C257.015 268.677 255.707 266.976 255.707 264.068C255.707 261.174 257.015 259.46 259.173 259.46C261.344 259.46 262.651 261.161 262.651 264.068C262.651 266.976 261.356 268.677 259.173 268.677ZM267.983 271H271.145V263.04C271.145 261.009 272.312 259.638 274.255 259.638C276.159 259.638 277.099 260.755 277.099 262.735V271H280.26V262.113C280.26 258.901 278.508 256.959 275.436 256.959C273.303 256.959 271.906 257.848 271.081 259.536H271.018V257.124H267.983V271Z" fill="#1B1E28"/>
<path d="M23.2756 306V296.228C23.6583 296.181 24.0783 296.149 24.5356 296.13C25.0023 296.102 25.483 296.088 25.9776 296.088C26.7896 296.088 27.4803 296.219 28.0496 296.48C28.619 296.732 29.053 297.082 29.3516 297.53C29.6503 297.978 29.7996 298.491 29.7996 299.07C29.7996 299.77 29.627 300.363 29.2816 300.848C28.9363 301.333 28.4556 301.707 27.8396 301.968C27.2236 302.22 26.5096 302.346 25.6976 302.346C25.3056 302.346 24.9416 302.332 24.6056 302.304V306H23.2756ZM25.8656 301.24C26.6963 301.24 27.3403 301.053 27.7976 300.68C28.255 300.307 28.4836 299.807 28.4836 299.182C28.4836 298.575 28.2643 298.095 27.8256 297.74C27.387 297.385 26.7616 297.208 25.9496 297.208C25.6976 297.208 25.4596 297.213 25.2356 297.222C25.0116 297.231 24.8016 297.245 24.6056 297.264V301.17C24.755 301.189 24.937 301.207 25.1516 301.226C25.3663 301.235 25.6043 301.24 25.8656 301.24ZM33.4824 306.168C33.0531 306.168 32.6657 306.089 32.3204 305.93C31.9751 305.762 31.6997 305.496 31.4944 305.132C31.2984 304.768 31.2004 304.297 31.2004 303.718V295.64H32.4604V303.592C32.4604 304.096 32.5631 304.469 32.7684 304.712C32.9831 304.955 33.2771 305.076 33.6504 305.076C33.8277 305.076 34.0004 305.057 34.1684 305.02C34.3457 304.973 34.4951 304.922 34.6164 304.866L34.9244 305.888C34.7564 305.963 34.5464 306.028 34.2944 306.084C34.0517 306.14 33.7811 306.168 33.4824 306.168ZM38.8172 306.168C37.7718 306.168 36.9412 305.837 36.3252 305.174C35.7185 304.502 35.4152 303.564 35.4152 302.36C35.4152 301.632 35.5505 300.983 35.8212 300.414C36.1012 299.835 36.4885 299.383 36.9832 299.056C37.4778 298.72 38.0518 298.552 38.7052 298.552C39.4052 298.552 39.9838 298.706 40.4412 299.014C40.9078 299.313 41.2578 299.719 41.4912 300.232C41.7245 300.745 41.8412 301.31 41.8412 301.926C41.8412 302.253 41.8272 302.57 41.7992 302.878H36.7032C36.7872 303.559 37.0252 304.091 37.4172 304.474C37.8092 304.857 38.3272 305.048 38.9712 305.048C39.3912 305.048 39.7692 305.006 40.1052 304.922C40.4412 304.829 40.7632 304.712 41.0712 304.572L41.3652 305.65C41.0292 305.799 40.6512 305.921 40.2312 306.014C39.8112 306.117 39.3398 306.168 38.8172 306.168ZM36.6892 301.856H40.6792C40.6792 301.147 40.5018 300.601 40.1472 300.218C39.7925 299.835 39.3025 299.644 38.6772 299.644C38.1358 299.644 37.6878 299.835 37.3332 300.218C36.9785 300.591 36.7638 301.137 36.6892 301.856ZM46.3064 306.168C45.6997 306.168 45.1491 306.014 44.6544 305.706C44.1597 305.398 43.7631 304.964 43.4644 304.404C43.1751 303.835 43.0304 303.167 43.0304 302.402C43.0304 301.674 43.1751 301.021 43.4644 300.442C43.7631 299.863 44.1691 299.406 44.6824 299.07C45.2051 298.725 45.8024 298.552 46.4744 298.552C46.8944 298.552 47.2724 298.627 47.6084 298.776C47.9537 298.916 48.2524 299.093 48.5044 299.308V298.72H49.6524V304.236C49.6524 304.591 49.7364 304.824 49.9044 304.936C50.0817 305.039 50.2731 305.09 50.4784 305.09L50.2124 306.07C49.3164 306.07 48.7751 305.706 48.5884 304.978C48.3737 305.277 48.0797 305.552 47.7064 305.804C47.3424 306.047 46.8757 306.168 46.3064 306.168ZM46.5864 305.048C46.9411 305.048 47.2771 304.964 47.5944 304.796C47.9117 304.619 48.1777 304.399 48.3924 304.138V300.232C48.1404 300.055 47.8604 299.915 47.5524 299.812C47.2537 299.7 46.9364 299.644 46.6004 299.644C46.1524 299.644 45.7557 299.761 45.4104 299.994C45.0744 300.218 44.8084 300.535 44.6124 300.946C44.4164 301.347 44.3184 301.819 44.3184 302.36C44.3184 302.883 44.4164 303.349 44.6124 303.76C44.8084 304.161 45.0791 304.479 45.4244 304.712C45.7697 304.936 46.1571 305.048 46.5864 305.048ZM54.121 306.168C53.5703 306.168 53.071 306.098 52.623 305.958C52.1843 305.818 51.8203 305.636 51.531 305.412L52.063 304.362C52.3057 304.567 52.609 304.74 52.973 304.88C53.3463 305.011 53.743 305.076 54.163 305.076C54.6857 305.076 55.0777 304.992 55.339 304.824C55.6097 304.647 55.745 304.423 55.745 304.152C55.745 303.956 55.6937 303.783 55.591 303.634C55.4977 303.485 55.3203 303.34 55.059 303.2C54.7977 303.051 54.4197 302.892 53.925 302.724C53.2437 302.491 52.7303 302.215 52.385 301.898C52.049 301.571 51.881 301.123 51.881 300.554C51.881 299.994 52.1237 299.523 52.609 299.14C53.1037 298.748 53.785 298.552 54.653 298.552C55.1197 298.552 55.535 298.603 55.899 298.706C56.263 298.799 56.5897 298.921 56.879 299.07L56.529 300.106C56.277 299.957 55.9877 299.835 55.661 299.742C55.3437 299.649 54.989 299.602 54.597 299.602C54.1117 299.602 53.743 299.7 53.491 299.896C53.239 300.092 53.113 300.307 53.113 300.54C53.113 300.764 53.211 300.955 53.407 301.114C53.603 301.273 53.9857 301.445 54.555 301.632C55.479 301.94 56.123 302.281 56.487 302.654C56.851 303.027 57.033 303.494 57.033 304.054C57.033 304.707 56.767 305.225 56.235 305.608C55.7123 305.981 55.0077 306.168 54.121 306.168ZM61.6218 306.168C60.5765 306.168 59.7458 305.837 59.1298 305.174C58.5232 304.502 58.2198 303.564 58.2198 302.36C58.2198 301.632 58.3552 300.983 58.6258 300.414C58.9058 299.835 59.2932 299.383 59.7878 299.056C60.2825 298.72 60.8565 298.552 61.5098 298.552C62.2098 298.552 62.7885 298.706 63.2458 299.014C63.7125 299.313 64.0625 299.719 64.2958 300.232C64.5292 300.745 64.6458 301.31 64.6458 301.926C64.6458 302.253 64.6318 302.57 64.6038 302.878H59.5078C59.5918 303.559 59.8298 304.091 60.2218 304.474C60.6138 304.857 61.1318 305.048 61.7758 305.048C62.1958 305.048 62.5738 305.006 62.9098 304.922C63.2458 304.829 63.5678 304.712 63.8758 304.572L64.1698 305.65C63.8338 305.799 63.4558 305.921 63.0358 306.014C62.6158 306.117 62.1445 306.168 61.6218 306.168ZM59.4938 301.856H63.4838C63.4838 301.147 63.3065 300.601 62.9518 300.218C62.5972 299.835 62.1072 299.644 61.4818 299.644C60.9405 299.644 60.4925 299.835 60.1378 300.218C59.7832 300.591 59.5685 301.137 59.4938 301.856ZM73.4623 306.168C72.7717 306.168 72.165 306.009 71.6423 305.692C71.129 305.365 70.7323 304.917 70.4523 304.348C70.1723 303.769 70.0323 303.107 70.0323 302.36C70.0323 301.66 70.1723 301.021 70.4523 300.442C70.7417 299.863 71.1523 299.406 71.6843 299.07C72.2163 298.725 72.8417 298.552 73.5603 298.552C73.971 298.552 74.3303 298.589 74.6383 298.664C74.9557 298.739 75.259 298.846 75.5483 298.986L75.1703 300.05C74.909 299.919 74.657 299.826 74.4143 299.77C74.181 299.705 73.9197 299.672 73.6303 299.672C72.977 299.672 72.4263 299.91 71.9783 300.386C71.5397 300.853 71.3203 301.501 71.3203 302.332C71.3203 302.836 71.4137 303.293 71.6003 303.704C71.787 304.115 72.0437 304.441 72.3703 304.684C72.7063 304.927 73.0983 305.048 73.5463 305.048C73.901 305.048 74.2043 305.011 74.4563 304.936C74.7083 304.852 74.979 304.735 75.2683 304.586L75.6603 305.65C75.371 305.809 75.0443 305.935 74.6803 306.028C74.3257 306.121 73.9197 306.168 73.4623 306.168ZM77.1259 306V295.64H78.3859V299.882C78.6472 299.499 78.9785 299.182 79.3799 298.93C79.7812 298.678 80.2525 298.552 80.7939 298.552C81.6152 298.552 82.2265 298.799 82.6279 299.294C83.0385 299.789 83.2439 300.442 83.2439 301.254V306H81.9839V301.394C81.9839 300.871 81.8625 300.451 81.6199 300.134C81.3772 299.817 81.0365 299.658 80.5979 299.658C80.1685 299.658 79.7579 299.812 79.3659 300.12C78.9832 300.419 78.6565 300.773 78.3859 301.184V306H77.1259ZM88.323 306.168C87.2777 306.168 86.447 305.837 85.831 305.174C85.2243 304.502 84.921 303.564 84.921 302.36C84.921 301.632 85.0563 300.983 85.327 300.414C85.607 299.835 85.9943 299.383 86.489 299.056C86.9837 298.72 87.5577 298.552 88.211 298.552C88.911 298.552 89.4897 298.706 89.947 299.014C90.4137 299.313 90.7637 299.719 90.997 300.232C91.2303 300.745 91.347 301.31 91.347 301.926C91.347 302.253 91.333 302.57 91.305 302.878H86.209C86.293 303.559 86.531 304.091 86.923 304.474C87.315 304.857 87.833 305.048 88.477 305.048C88.897 305.048 89.275 305.006 89.611 304.922C89.947 304.829 90.269 304.712 90.577 304.572L90.871 305.65C90.535 305.799 90.157 305.921 89.737 306.014C89.317 306.117 88.8457 306.168 88.323 306.168ZM86.195 301.856H90.185C90.185 301.147 90.0077 300.601 89.653 300.218C89.2983 299.835 88.8083 299.644 88.183 299.644C87.6417 299.644 87.1937 299.835 86.839 300.218C86.4843 300.591 86.2697 301.137 86.195 301.856ZM95.9663 306.168C95.2756 306.168 94.6689 306.009 94.1463 305.692C93.6329 305.365 93.2363 304.917 92.9563 304.348C92.6763 303.769 92.5363 303.107 92.5363 302.36C92.5363 301.66 92.6763 301.021 92.9563 300.442C93.2456 299.863 93.6563 299.406 94.1883 299.07C94.7203 298.725 95.3456 298.552 96.0643 298.552C96.4749 298.552 96.8343 298.589 97.1423 298.664C97.4596 298.739 97.7629 298.846 98.0523 298.986L97.6743 300.05C97.4129 299.919 97.1609 299.826 96.9183 299.77C96.6849 299.705 96.4236 299.672 96.1343 299.672C95.4809 299.672 94.9303 299.91 94.4823 300.386C94.0436 300.853 93.8243 301.501 93.8243 302.332C93.8243 302.836 93.9176 303.293 94.1043 303.704C94.2909 304.115 94.5476 304.441 94.8743 304.684C95.2103 304.927 95.6023 305.048 96.0503 305.048C96.4049 305.048 96.7083 305.011 96.9603 304.936C97.2123 304.852 97.4829 304.735 97.7723 304.586L98.1643 305.65C97.8749 305.809 97.5483 305.935 97.1843 306.028C96.8296 306.121 96.4236 306.168 95.9663 306.168ZM104.656 306.14L100.89 302.262V306H99.6298V295.64H100.89V301.562L104.18 298.58L104.908 299.378L102.094 301.87L105.524 305.3L104.656 306.14ZM111.159 309.248C110.879 309.248 110.632 309.22 110.417 309.164C110.212 309.108 110.049 309.043 109.927 308.968L110.207 307.918C110.319 307.983 110.459 308.039 110.627 308.086C110.795 308.133 110.982 308.156 111.187 308.156C111.579 308.156 111.929 308.03 112.237 307.778C112.545 307.526 112.839 307.031 113.119 306.294L113.441 305.454H112.769L109.927 299.056L111.047 298.552L113.763 304.614L115.877 298.608L117.039 299.056L114.365 306.364C114.095 307.111 113.801 307.694 113.483 308.114C113.166 308.534 112.816 308.828 112.433 308.996C112.051 309.164 111.626 309.248 111.159 309.248ZM121.098 306.168C120.407 306.168 119.787 306.009 119.236 305.692C118.685 305.365 118.251 304.917 117.934 304.348C117.626 303.769 117.472 303.107 117.472 302.36C117.472 301.576 117.631 300.899 117.948 300.33C118.265 299.761 118.699 299.322 119.25 299.014C119.801 298.706 120.417 298.552 121.098 298.552C121.779 298.552 122.391 298.706 122.932 299.014C123.483 299.322 123.917 299.761 124.234 300.33C124.561 300.89 124.724 301.557 124.724 302.332C124.724 303.107 124.565 303.783 124.248 304.362C123.931 304.931 123.497 305.375 122.946 305.692C122.405 306.009 121.789 306.168 121.098 306.168ZM121.098 305.048C121.835 305.048 122.409 304.801 122.82 304.306C123.231 303.802 123.436 303.153 123.436 302.36C123.436 301.875 123.333 301.431 123.128 301.03C122.923 300.619 122.643 300.293 122.288 300.05C121.943 299.798 121.546 299.672 121.098 299.672C120.361 299.672 119.787 299.915 119.376 300.4C118.965 300.885 118.76 301.529 118.76 302.332C118.76 302.817 118.863 303.27 119.068 303.69C119.273 304.101 119.549 304.432 119.894 304.684C120.249 304.927 120.65 305.048 121.098 305.048ZM128.779 306.168C128.359 306.168 127.963 306.079 127.589 305.902C127.216 305.725 126.913 305.44 126.679 305.048C126.446 304.647 126.329 304.115 126.329 303.452V298.72H127.589V303.284C127.589 303.853 127.711 304.292 127.953 304.6C128.196 304.899 128.551 305.048 129.017 305.048C129.4 305.048 129.769 304.973 130.123 304.824C130.487 304.665 130.809 304.455 131.089 304.194V298.72H132.349V304.11C132.349 304.511 132.433 304.777 132.601 304.908C132.779 305.029 132.97 305.09 133.175 305.09L132.909 306.07C132.041 306.07 131.505 305.725 131.299 305.034C130.973 305.37 130.595 305.645 130.165 305.86C129.736 306.065 129.274 306.168 128.779 306.168ZM134.849 306V298.72H136.067V300.302C136.188 299.994 136.351 299.709 136.557 299.448C136.762 299.177 137.019 298.963 137.327 298.804C137.635 298.636 137.994 298.552 138.405 298.552C138.545 298.552 138.685 298.561 138.825 298.58C138.965 298.589 139.081 298.608 139.175 298.636L138.797 299.938C138.619 299.863 138.409 299.826 138.167 299.826C137.821 299.826 137.49 299.924 137.173 300.12C136.865 300.316 136.608 300.619 136.403 301.03C136.207 301.441 136.109 301.963 136.109 302.598V306H134.849ZM147.214 306.168C146.532 306.168 145.912 306.079 145.352 305.902C144.792 305.715 144.32 305.473 143.938 305.174L144.61 304.054C144.946 304.334 145.324 304.563 145.744 304.74C146.164 304.917 146.654 305.006 147.214 305.006C147.886 305.006 148.418 304.866 148.81 304.586C149.202 304.306 149.398 303.928 149.398 303.452C149.398 303.181 149.342 302.943 149.23 302.738C149.118 302.523 148.898 302.318 148.572 302.122C148.254 301.917 147.783 301.697 147.158 301.464C146.486 301.203 145.949 300.941 145.548 300.68C145.146 300.409 144.857 300.106 144.68 299.77C144.512 299.425 144.428 299.019 144.428 298.552C144.428 298.085 144.554 297.665 144.806 297.292C145.067 296.909 145.445 296.606 145.94 296.382C146.444 296.149 147.05 296.032 147.76 296.032C148.338 296.032 148.856 296.093 149.314 296.214C149.78 296.326 150.233 296.489 150.672 296.704L150.182 297.838C149.864 297.651 149.491 297.497 149.062 297.376C148.642 297.245 148.198 297.18 147.732 297.18C147.116 297.18 146.63 297.301 146.276 297.544C145.921 297.787 145.744 298.099 145.744 298.482C145.744 298.725 145.795 298.939 145.898 299.126C146 299.313 146.201 299.495 146.5 299.672C146.808 299.849 147.265 300.05 147.872 300.274C148.6 300.545 149.174 300.829 149.594 301.128C150.023 301.427 150.326 301.753 150.504 302.108C150.681 302.453 150.77 302.85 150.77 303.298C150.77 303.905 150.616 304.423 150.308 304.852C150.009 305.281 149.589 305.608 149.048 305.832C148.516 306.056 147.904 306.168 147.214 306.168ZM152.735 306V296.2H154.597L157.313 302.402L159.987 296.2H161.891V306H160.561V297.894L157.943 303.788H156.627L153.995 297.894V306H152.735ZM166.846 306.168C166.165 306.168 165.544 306.079 164.984 305.902C164.424 305.715 163.953 305.473 163.57 305.174L164.242 304.054C164.578 304.334 164.956 304.563 165.376 304.74C165.796 304.917 166.286 305.006 166.846 305.006C167.518 305.006 168.05 304.866 168.442 304.586C168.834 304.306 169.03 303.928 169.03 303.452C169.03 303.181 168.974 302.943 168.862 302.738C168.75 302.523 168.531 302.318 168.204 302.122C167.887 301.917 167.416 301.697 166.79 301.464C166.118 301.203 165.582 300.941 165.18 300.68C164.779 300.409 164.49 300.106 164.312 299.77C164.144 299.425 164.06 299.019 164.06 298.552C164.06 298.085 164.186 297.665 164.438 297.292C164.7 296.909 165.078 296.606 165.572 296.382C166.076 296.149 166.683 296.032 167.392 296.032C167.971 296.032 168.489 296.093 168.946 296.214C169.413 296.326 169.866 296.489 170.304 296.704L169.814 297.838C169.497 297.651 169.124 297.497 168.694 297.376C168.274 297.245 167.831 297.18 167.364 297.18C166.748 297.18 166.263 297.301 165.908 297.544C165.554 297.787 165.376 298.099 165.376 298.482C165.376 298.725 165.428 298.939 165.53 299.126C165.633 299.313 165.834 299.495 166.132 299.672C166.44 299.849 166.898 300.05 167.504 300.274C168.232 300.545 168.806 300.829 169.226 301.128C169.656 301.427 169.959 301.753 170.136 302.108C170.314 302.453 170.402 302.85 170.402 303.298C170.402 303.905 170.248 304.423 169.94 304.852C169.642 305.281 169.222 305.608 168.68 305.832C168.148 306.056 167.537 306.168 166.846 306.168ZM178.973 306.168C178.273 306.168 177.717 305.939 177.307 305.482C176.905 305.015 176.705 304.353 176.705 303.494V300.078H175.445V298.986H176.733L176.999 296.69H177.965V298.986H179.981V300.078H177.965V303.592C177.965 304.133 178.077 304.511 178.301 304.726C178.534 304.941 178.809 305.048 179.127 305.048C179.36 305.048 179.579 305.011 179.785 304.936C179.999 304.861 180.195 304.773 180.373 304.67L180.723 305.678C180.536 305.79 180.284 305.897 179.967 306C179.649 306.112 179.318 306.168 178.973 306.168ZM184.782 306.168C184.091 306.168 183.47 306.009 182.92 305.692C182.369 305.365 181.935 304.917 181.618 304.348C181.31 303.769 181.156 303.107 181.156 302.36C181.156 301.576 181.314 300.899 181.632 300.33C181.949 299.761 182.383 299.322 182.934 299.014C183.484 298.706 184.1 298.552 184.782 298.552C185.463 298.552 186.074 298.706 186.616 299.014C187.166 299.322 187.6 299.761 187.918 300.33C188.244 300.89 188.408 301.557 188.408 302.332C188.408 303.107 188.249 303.783 187.932 304.362C187.614 304.931 187.18 305.375 186.63 305.692C186.088 306.009 185.472 306.168 184.782 306.168ZM184.782 305.048C185.519 305.048 186.093 304.801 186.504 304.306C186.914 303.802 187.12 303.153 187.12 302.36C187.12 301.875 187.017 301.431 186.812 301.03C186.606 300.619 186.326 300.293 185.972 300.05C185.626 299.798 185.23 299.672 184.782 299.672C184.044 299.672 183.47 299.915 183.06 300.4C182.649 300.885 182.444 301.529 182.444 302.332C182.444 302.817 182.546 303.27 182.752 303.69C182.957 304.101 183.232 304.432 183.578 304.684C183.932 304.927 184.334 305.048 184.782 305.048ZM196.24 306.168C195.689 306.168 195.19 306.098 194.742 305.958C194.303 305.818 193.939 305.636 193.65 305.412L194.182 304.362C194.425 304.567 194.728 304.74 195.092 304.88C195.465 305.011 195.862 305.076 196.282 305.076C196.805 305.076 197.197 304.992 197.458 304.824C197.729 304.647 197.864 304.423 197.864 304.152C197.864 303.956 197.813 303.783 197.71 303.634C197.617 303.485 197.439 303.34 197.178 303.2C196.917 303.051 196.539 302.892 196.044 302.724C195.363 302.491 194.849 302.215 194.504 301.898C194.168 301.571 194 301.123 194 300.554C194 299.994 194.243 299.523 194.728 299.14C195.223 298.748 195.904 298.552 196.772 298.552C197.239 298.552 197.654 298.603 198.018 298.706C198.382 298.799 198.709 298.921 198.998 299.07L198.648 300.106C198.396 299.957 198.107 299.835 197.78 299.742C197.463 299.649 197.108 299.602 196.716 299.602C196.231 299.602 195.862 299.7 195.61 299.896C195.358 300.092 195.232 300.307 195.232 300.54C195.232 300.764 195.33 300.955 195.526 301.114C195.722 301.273 196.105 301.445 196.674 301.632C197.598 301.94 198.242 302.281 198.606 302.654C198.97 303.027 199.152 303.494 199.152 304.054C199.152 304.707 198.886 305.225 198.354 305.608C197.831 305.981 197.127 306.168 196.24 306.168ZM203.741 306.168C202.696 306.168 201.865 305.837 201.249 305.174C200.642 304.502 200.339 303.564 200.339 302.36C200.339 301.632 200.474 300.983 200.745 300.414C201.025 299.835 201.412 299.383 201.907 299.056C202.402 298.72 202.976 298.552 203.629 298.552C204.329 298.552 204.908 298.706 205.365 299.014C205.832 299.313 206.182 299.719 206.415 300.232C206.648 300.745 206.765 301.31 206.765 301.926C206.765 302.253 206.751 302.57 206.723 302.878H201.627C201.711 303.559 201.949 304.091 202.341 304.474C202.733 304.857 203.251 305.048 203.895 305.048C204.315 305.048 204.693 305.006 205.029 304.922C205.365 304.829 205.687 304.712 205.995 304.572L206.289 305.65C205.953 305.799 205.575 305.921 205.155 306.014C204.735 306.117 204.264 306.168 203.741 306.168ZM201.613 301.856H205.603C205.603 301.147 205.426 300.601 205.071 300.218C204.716 299.835 204.226 299.644 203.601 299.644C203.06 299.644 202.612 299.835 202.257 300.218C201.902 300.591 201.688 301.137 201.613 301.856ZM211.356 306.168C210.311 306.168 209.48 305.837 208.864 305.174C208.258 304.502 207.954 303.564 207.954 302.36C207.954 301.632 208.09 300.983 208.36 300.414C208.64 299.835 209.028 299.383 209.522 299.056C210.017 298.72 210.591 298.552 211.244 298.552C211.944 298.552 212.523 298.706 212.98 299.014C213.447 299.313 213.797 299.719 214.03 300.232C214.264 300.745 214.38 301.31 214.38 301.926C214.38 302.253 214.366 302.57 214.338 302.878H209.242C209.326 303.559 209.564 304.091 209.956 304.474C210.348 304.857 210.866 305.048 211.51 305.048C211.93 305.048 212.308 305.006 212.644 304.922C212.98 304.829 213.302 304.712 213.61 304.572L213.904 305.65C213.568 305.799 213.19 305.921 212.77 306.014C212.35 306.117 211.879 306.168 211.356 306.168ZM209.228 301.856H213.218C213.218 301.147 213.041 300.601 212.686 300.218C212.332 299.835 211.842 299.644 211.216 299.644C210.675 299.644 210.227 299.835 209.872 300.218C209.518 300.591 209.303 301.137 209.228 301.856ZM222.805 306.168C222.105 306.168 221.549 305.939 221.139 305.482C220.737 305.015 220.537 304.353 220.537 303.494V300.078H219.277V298.986H220.565L220.831 296.69H221.797V298.986H223.813V300.078H221.797V303.592C221.797 304.133 221.909 304.511 222.133 304.726C222.366 304.941 222.641 305.048 222.959 305.048C223.192 305.048 223.411 305.011 223.617 304.936C223.831 304.861 224.027 304.773 224.205 304.67L224.555 305.678C224.368 305.79 224.116 305.897 223.799 306C223.481 306.112 223.15 306.168 222.805 306.168ZM225.821 306V295.64H227.081V299.882C227.343 299.499 227.674 299.182 228.075 298.93C228.477 298.678 228.948 298.552 229.489 298.552C230.311 298.552 230.922 298.799 231.323 299.294C231.734 299.789 231.939 300.442 231.939 301.254V306H230.679V301.394C230.679 300.871 230.558 300.451 230.315 300.134C230.073 299.817 229.732 299.658 229.293 299.658C228.864 299.658 228.453 299.812 228.061 300.12C227.679 300.419 227.352 300.773 227.081 301.184V306H225.821ZM237.018 306.168C235.973 306.168 235.142 305.837 234.526 305.174C233.92 304.502 233.616 303.564 233.616 302.36C233.616 301.632 233.752 300.983 234.022 300.414C234.302 299.835 234.69 299.383 235.184 299.056C235.679 298.72 236.253 298.552 236.906 298.552C237.606 298.552 238.185 298.706 238.642 299.014C239.109 299.313 239.459 299.719 239.692 300.232C239.926 300.745 240.042 301.31 240.042 301.926C240.042 302.253 240.028 302.57 240 302.878H234.904C234.988 303.559 235.226 304.091 235.618 304.474C236.01 304.857 236.528 305.048 237.172 305.048C237.592 305.048 237.97 305.006 238.306 304.922C238.642 304.829 238.964 304.712 239.272 304.572L239.566 305.65C239.23 305.799 238.852 305.921 238.432 306.014C238.012 306.117 237.541 306.168 237.018 306.168ZM234.89 301.856H238.88C238.88 301.147 238.703 300.601 238.348 300.218C237.994 299.835 237.504 299.644 236.878 299.644C236.337 299.644 235.889 299.835 235.534 300.218C235.18 300.591 234.965 301.137 234.89 301.856ZM247.865 306L244.939 299.056L246.087 298.58L248.565 304.572L251.043 298.58L252.121 299.056L249.181 306H247.865ZM256.022 306.168C254.977 306.168 254.146 305.837 253.53 305.174C252.924 304.502 252.62 303.564 252.62 302.36C252.62 301.632 252.756 300.983 253.026 300.414C253.306 299.835 253.694 299.383 254.188 299.056C254.683 298.72 255.257 298.552 255.91 298.552C256.61 298.552 257.189 298.706 257.646 299.014C258.113 299.313 258.463 299.719 258.696 300.232C258.93 300.745 259.046 301.31 259.046 301.926C259.046 302.253 259.032 302.57 259.004 302.878H253.908C253.992 303.559 254.23 304.091 254.622 304.474C255.014 304.857 255.532 305.048 256.176 305.048C256.596 305.048 256.974 305.006 257.31 304.922C257.646 304.829 257.968 304.712 258.276 304.572L258.57 305.65C258.234 305.799 257.856 305.921 257.436 306.014C257.016 306.117 256.545 306.168 256.022 306.168ZM253.894 301.856H257.884C257.884 301.147 257.707 300.601 257.352 300.218C256.998 299.835 256.508 299.644 255.882 299.644C255.341 299.644 254.893 299.835 254.538 300.218C254.184 300.591 253.969 301.137 253.894 301.856ZM260.725 306V298.72H261.943V300.302C262.065 299.994 262.228 299.709 262.433 299.448C262.639 299.177 262.895 298.963 263.203 298.804C263.511 298.636 263.871 298.552 264.281 298.552C264.421 298.552 264.561 298.561 264.701 298.58C264.841 298.589 264.958 298.608 265.051 298.636L264.673 299.938C264.496 299.863 264.286 299.826 264.043 299.826C263.698 299.826 263.367 299.924 263.049 300.12C262.741 300.316 262.485 300.619 262.279 301.03C262.083 301.441 261.985 301.963 261.985 302.598V306H260.725ZM266.317 306V298.72H267.577V306H266.317ZM266.947 297.474C266.705 297.474 266.495 297.385 266.317 297.208C266.149 297.031 266.065 296.825 266.065 296.592C266.065 296.321 266.145 296.107 266.303 295.948C266.462 295.789 266.677 295.71 266.947 295.71C267.19 295.71 267.395 295.799 267.563 295.976C267.741 296.144 267.829 296.349 267.829 296.592C267.829 296.853 267.75 297.068 267.591 297.236C267.433 297.395 267.218 297.474 266.947 297.474ZM269.957 306V300.078H268.837V298.986H269.957V298.132C269.957 297.311 270.186 296.662 270.643 296.186C271.101 295.71 271.698 295.472 272.435 295.472C272.818 295.472 273.154 295.519 273.443 295.612C273.733 295.696 274.008 295.803 274.269 295.934L273.891 296.998C273.695 296.895 273.485 296.802 273.261 296.718C273.037 296.634 272.79 296.592 272.519 296.592C272.127 296.592 271.81 296.718 271.567 296.97C271.334 297.213 271.217 297.572 271.217 298.048V298.986H273.373V300.078H271.217V306H269.957ZM274.684 306V298.72H275.944V306H274.684ZM275.314 297.474C275.072 297.474 274.862 297.385 274.684 297.208C274.516 297.031 274.432 296.825 274.432 296.592C274.432 296.321 274.512 296.107 274.67 295.948C274.829 295.789 275.044 295.71 275.314 295.71C275.557 295.71 275.762 295.799 275.93 295.976C276.108 296.144 276.196 296.349 276.196 296.592C276.196 296.853 276.117 297.068 275.958 297.236C275.8 297.395 275.585 297.474 275.314 297.474ZM281.124 306.168C280.434 306.168 279.827 306.009 279.304 305.692C278.791 305.365 278.394 304.917 278.114 304.348C277.834 303.769 277.694 303.107 277.694 302.36C277.694 301.66 277.834 301.021 278.114 300.442C278.404 299.863 278.814 299.406 279.346 299.07C279.878 298.725 280.504 298.552 281.222 298.552C281.633 298.552 281.992 298.589 282.3 298.664C282.618 298.739 282.921 298.846 283.21 298.986L282.832 300.05C282.571 299.919 282.319 299.826 282.076 299.77C281.843 299.705 281.582 299.672 281.292 299.672C280.639 299.672 280.088 299.91 279.64 300.386C279.202 300.853 278.982 301.501 278.982 302.332C278.982 302.836 279.076 303.293 279.262 303.704C279.449 304.115 279.706 304.441 280.032 304.684C280.368 304.927 280.76 305.048 281.208 305.048C281.563 305.048 281.866 305.011 282.118 304.936C282.37 304.852 282.641 304.735 282.93 304.586L283.322 305.65C283.033 305.809 282.706 305.935 282.342 306.028C281.988 306.121 281.582 306.168 281.124 306.168ZM287.437 306.168C286.831 306.168 286.28 306.014 285.785 305.706C285.291 305.398 284.894 304.964 284.595 304.404C284.306 303.835 284.161 303.167 284.161 302.402C284.161 301.674 284.306 301.021 284.595 300.442C284.894 299.863 285.3 299.406 285.813 299.07C286.336 298.725 286.933 298.552 287.605 298.552C288.025 298.552 288.403 298.627 288.739 298.776C289.085 298.916 289.383 299.093 289.635 299.308V298.72H290.783V304.236C290.783 304.591 290.867 304.824 291.035 304.936C291.213 305.039 291.404 305.09 291.609 305.09L291.343 306.07C290.447 306.07 289.906 305.706 289.719 304.978C289.505 305.277 289.211 305.552 288.837 305.804C288.473 306.047 288.007 306.168 287.437 306.168ZM287.717 305.048C288.072 305.048 288.408 304.964 288.725 304.796C289.043 304.619 289.309 304.399 289.523 304.138V300.232C289.271 300.055 288.991 299.915 288.683 299.812C288.385 299.7 288.067 299.644 287.731 299.644C287.283 299.644 286.887 299.761 286.541 299.994C286.205 300.218 285.939 300.535 285.743 300.946C285.547 301.347 285.449 301.819 285.449 302.36C285.449 302.883 285.547 303.349 285.743 303.76C285.939 304.161 286.21 304.479 286.555 304.712C286.901 304.936 287.288 305.048 287.717 305.048ZM295.84 306.168C295.14 306.168 294.585 305.939 294.174 305.482C293.773 305.015 293.572 304.353 293.572 303.494V300.078H292.312V298.986H293.6L293.866 296.69H294.832V298.986H296.848V300.078H294.832V303.592C294.832 304.133 294.944 304.511 295.168 304.726C295.401 304.941 295.677 305.048 295.994 305.048C296.227 305.048 296.447 305.011 296.652 304.936C296.867 304.861 297.063 304.773 297.24 304.67L297.59 305.678C297.403 305.79 297.151 305.897 296.834 306C296.517 306.112 296.185 306.168 295.84 306.168ZM298.856 306V298.72H300.116V306H298.856ZM299.486 297.474C299.244 297.474 299.034 297.385 298.856 297.208C298.688 297.031 298.604 296.825 298.604 296.592C298.604 296.321 298.684 296.107 298.842 295.948C299.001 295.789 299.216 295.71 299.486 295.71C299.729 295.71 299.934 295.799 300.102 295.976C300.28 296.144 300.368 296.349 300.368 296.592C300.368 296.853 300.289 297.068 300.13 297.236C299.972 297.395 299.757 297.474 299.486 297.474ZM305.422 306.168C304.732 306.168 304.111 306.009 303.56 305.692C303.01 305.365 302.576 304.917 302.258 304.348C301.95 303.769 301.796 303.107 301.796 302.36C301.796 301.576 301.955 300.899 302.272 300.33C302.59 299.761 303.024 299.322 303.574 299.014C304.125 298.706 304.741 298.552 305.422 298.552C306.104 298.552 306.715 298.706 307.256 299.014C307.807 299.322 308.241 299.761 308.558 300.33C308.885 300.89 309.048 301.557 309.048 302.332C309.048 303.107 308.89 303.783 308.572 304.362C308.255 304.931 307.821 305.375 307.27 305.692C306.729 306.009 306.113 306.168 305.422 306.168ZM305.422 305.048C306.16 305.048 306.734 304.801 307.144 304.306C307.555 303.802 307.76 303.153 307.76 302.36C307.76 301.875 307.658 301.431 307.452 301.03C307.247 300.619 306.967 300.293 306.612 300.05C306.267 299.798 305.87 299.672 305.422 299.672C304.685 299.672 304.111 299.915 303.7 300.4C303.29 300.885 303.084 301.529 303.084 302.332C303.084 302.817 303.187 303.27 303.392 303.69C303.598 304.101 303.873 304.432 304.218 304.684C304.573 304.927 304.974 305.048 305.422 305.048ZM310.724 306V298.72H311.942V299.938C312.203 299.546 312.534 299.219 312.936 298.958C313.346 298.687 313.832 298.552 314.392 298.552C315.213 298.552 315.824 298.799 316.226 299.294C316.636 299.789 316.842 300.442 316.842 301.254V306H315.582V301.394C315.582 300.871 315.456 300.451 315.204 300.134C314.961 299.817 314.62 299.658 314.182 299.658C313.752 299.658 313.346 299.812 312.964 300.12C312.581 300.419 312.254 300.773 311.984 301.184V306H310.724ZM326.146 306.168C325.455 306.168 324.849 306.009 324.326 305.692C323.813 305.365 323.416 304.917 323.136 304.348C322.856 303.769 322.716 303.107 322.716 302.36C322.716 301.66 322.856 301.021 323.136 300.442C323.425 299.863 323.836 299.406 324.368 299.07C324.9 298.725 325.525 298.552 326.244 298.552C326.655 298.552 327.014 298.589 327.322 298.664C327.639 298.739 327.943 298.846 328.232 298.986L327.854 300.05C327.593 299.919 327.341 299.826 327.098 299.77C326.865 299.705 326.603 299.672 326.314 299.672C325.661 299.672 325.11 299.91 324.662 300.386C324.223 300.853 324.004 301.501 324.004 302.332C324.004 302.836 324.097 303.293 324.284 303.704C324.471 304.115 324.727 304.441 325.054 304.684C325.39 304.927 325.782 305.048 326.23 305.048C326.585 305.048 326.888 305.011 327.14 304.936C327.392 304.852 327.663 304.735 327.952 304.586L328.344 305.65C328.055 305.809 327.728 305.935 327.364 306.028C327.009 306.121 326.603 306.168 326.146 306.168ZM332.739 306.168C332.048 306.168 331.427 306.009 330.877 305.692C330.326 305.365 329.892 304.917 329.575 304.348C329.267 303.769 329.113 303.107 329.113 302.36C329.113 301.576 329.271 300.899 329.589 300.33C329.906 299.761 330.34 299.322 330.891 299.014C331.441 298.706 332.057 298.552 332.739 298.552C333.42 298.552 334.031 298.706 334.573 299.014C335.123 299.322 335.557 299.761 335.875 300.33C336.201 300.89 336.365 301.557 336.365 302.332C336.365 303.107 336.206 303.783 335.889 304.362C335.571 304.931 335.137 305.375 334.587 305.692C334.045 306.009 333.429 306.168 332.739 306.168ZM332.739 305.048C333.476 305.048 334.05 304.801 334.461 304.306C334.871 303.802 335.077 303.153 335.077 302.36C335.077 301.875 334.974 301.431 334.769 301.03C334.563 300.619 334.283 300.293 333.929 300.05C333.583 299.798 333.187 299.672 332.739 299.672C332.001 299.672 331.427 299.915 331.017 300.4C330.606 300.885 330.401 301.529 330.401 302.332C330.401 302.817 330.503 303.27 330.709 303.69C330.914 304.101 331.189 304.432 331.535 304.684C331.889 304.927 332.291 305.048 332.739 305.048ZM340.798 306.168C340.201 306.168 339.655 306.014 339.16 305.706C338.665 305.398 338.273 304.964 337.984 304.404C337.695 303.835 337.55 303.167 337.55 302.402C337.55 301.665 337.695 301.007 337.984 300.428C338.283 299.849 338.675 299.392 339.16 299.056C339.655 298.72 340.196 298.552 340.784 298.552C341.269 298.552 341.685 298.65 342.03 298.846C342.385 299.042 342.66 299.243 342.856 299.448V295.64H344.116V304.236C344.116 304.591 344.2 304.824 344.368 304.936C344.545 305.039 344.737 305.09 344.942 305.09L344.676 306.07C343.789 306.07 343.248 305.715 343.052 305.006C342.847 305.295 342.557 305.561 342.184 305.804C341.82 306.047 341.358 306.168 340.798 306.168ZM341.078 305.048C341.423 305.048 341.75 304.969 342.058 304.81C342.375 304.642 342.641 304.427 342.856 304.166V300.554C342.679 300.33 342.431 300.125 342.114 299.938C341.797 299.742 341.447 299.644 341.064 299.644C340.616 299.644 340.224 299.765 339.888 300.008C339.552 300.251 339.291 300.577 339.104 300.988C338.927 301.389 338.838 301.847 338.838 302.36C338.838 302.873 338.936 303.335 339.132 303.746C339.328 304.147 339.594 304.465 339.93 304.698C340.275 304.931 340.658 305.048 341.078 305.048ZM349.401 306.168C348.356 306.168 347.525 305.837 346.909 305.174C346.302 304.502 345.999 303.564 345.999 302.36C345.999 301.632 346.134 300.983 346.405 300.414C346.685 299.835 347.072 299.383 347.567 299.056C348.062 298.72 348.636 298.552 349.289 298.552C349.989 298.552 350.568 298.706 351.025 299.014C351.492 299.313 351.842 299.719 352.075 300.232C352.308 300.745 352.425 301.31 352.425 301.926C352.425 302.253 352.411 302.57 352.383 302.878H347.287C347.371 303.559 347.609 304.091 348.001 304.474C348.393 304.857 348.911 305.048 349.555 305.048C349.975 305.048 350.353 305.006 350.689 304.922C351.025 304.829 351.347 304.712 351.655 304.572L351.949 305.65C351.613 305.799 351.235 305.921 350.815 306.014C350.395 306.117 349.924 306.168 349.401 306.168ZM347.273 301.856H351.263C351.263 301.147 351.086 300.601 350.731 300.218C350.376 299.835 349.886 299.644 349.261 299.644C348.72 299.644 348.272 299.835 347.917 300.218C347.562 300.591 347.348 301.137 347.273 301.856Z" fill="#FFB800"/>
<rect x="20" y="508" width="335" height="56" rx="16" fill="#FFB800"/>
<path d="M172.453 542L176.375 530.727H174.203L171.344 539.836H171.297L168.438 530.727H166.219L170.141 542H172.453ZM180.258 534.859C181.414 534.859 182.211 535.672 182.25 536.906H178.203C178.289 535.688 179.117 534.859 180.258 534.859ZM182.258 539.461C182.031 540.164 181.305 540.609 180.367 540.609C179.062 540.609 178.188 539.695 178.188 538.32V538.203H184.164V537.562C184.164 534.977 182.648 533.344 180.258 533.344C177.812 533.344 176.242 535.078 176.242 537.766C176.242 540.453 177.805 542.125 180.328 542.125C182.32 542.125 183.836 541.039 184.086 539.461H182.258ZM185.477 542H187.422V537.047C187.422 535.844 188.109 535.102 189.25 535.102C189.586 535.102 189.891 535.148 190.055 535.211V533.445C189.906 533.398 189.688 533.367 189.43 533.367C188.422 533.367 187.656 533.945 187.383 534.945H187.344V533.461H185.477V542ZM191.156 542H193.102V533.461H191.156V542ZM192.125 532.375C192.734 532.375 193.219 531.906 193.219 531.305C193.219 530.695 192.734 530.234 192.125 530.234C191.523 530.234 191.031 530.695 191.031 531.305C191.031 531.906 191.523 532.375 192.125 532.375ZM195.367 542H197.312V534.969H198.906V533.461H197.289V532.781C197.289 532.109 197.578 531.82 198.273 531.82C198.508 531.82 198.727 531.844 198.898 531.883V530.469C198.609 530.414 198.297 530.391 197.953 530.391C196.117 530.391 195.367 531.078 195.367 532.695V533.461H194.203V534.969H195.367V542ZM201.211 545.109C203.125 545.109 204.039 544.398 204.766 542.297L207.859 533.461H205.805L203.766 540.32H203.727L201.68 533.461H199.562L202.617 542.031L202.508 542.43C202.266 543.234 201.805 543.555 200.977 543.555C200.852 543.555 200.555 543.547 200.445 543.523V545.07C200.562 545.094 201.094 545.109 201.211 545.109Z" fill="white"/>
<path d="M22.1875 584.229H24.5596C25.8311 584.229 26.5967 584.934 26.5967 586.116C26.5967 587.326 25.8789 588.01 24.6143 588.01H22.1875V584.229ZM22.1875 589.097H24.6143L26.7266 593H28.1689L25.8857 588.905C27.123 588.516 27.8682 587.449 27.8682 586.075C27.8682 584.298 26.624 583.136 24.7236 583.136H20.957V593H22.1875V589.097ZM32.209 586.608C33.3711 586.608 34.1641 587.442 34.1914 588.693H30.1377C30.2197 587.449 31.0537 586.608 32.209 586.608ZM34.1641 590.895C33.9521 591.585 33.2344 592.022 32.3115 592.022C30.999 592.022 30.1377 591.113 30.1377 589.712V589.644H35.4287V589.179C35.4287 586.95 34.1982 585.562 32.2295 585.562C30.2197 585.562 28.9072 587.06 28.9072 589.343C28.9072 591.626 30.2129 593.068 32.2842 593.068C33.8564 593.068 35.1348 592.159 35.3398 590.895H34.1641ZM36.5566 587.688C36.5566 588.673 37.1855 589.322 38.4775 589.657L39.7695 589.992C40.6104 590.211 40.918 590.484 40.918 591.004C40.918 591.667 40.2891 592.084 39.2842 592.084C38.2793 592.084 37.6709 591.681 37.5479 590.929H36.3516C36.4678 592.207 37.6162 593.068 39.2021 593.068C40.9043 593.068 42.1143 592.18 42.1143 590.922C42.1143 589.849 41.5811 589.329 40.0908 588.953L38.9697 588.673C38.1221 588.461 37.7256 588.126 37.7256 587.627C37.7256 586.984 38.334 586.554 39.2432 586.554C40.1455 586.554 40.7471 586.984 40.8223 587.675H41.9639C41.916 586.465 40.7812 585.569 39.2842 585.569C37.6846 585.569 36.5566 586.444 36.5566 587.688ZM46.3457 586.608C47.5078 586.608 48.3008 587.442 48.3281 588.693H44.2744C44.3564 587.449 45.1904 586.608 46.3457 586.608ZM48.3008 590.895C48.0889 591.585 47.3711 592.022 46.4482 592.022C45.1357 592.022 44.2744 591.113 44.2744 589.712V589.644H49.5654V589.179C49.5654 586.95 48.335 585.562 46.3662 585.562C44.3564 585.562 43.0439 587.06 43.0439 589.343C43.0439 591.626 44.3496 593.068 46.4209 593.068C47.9932 593.068 49.2715 592.159 49.4766 590.895H48.3008ZM50.8164 593H52.0059V588.721C52.0059 587.456 52.7373 586.622 53.9473 586.622C55.1094 586.622 55.6699 587.278 55.6699 588.481V593H56.8594V588.276C56.8594 586.602 55.9229 585.562 54.3027 585.562C53.1611 585.562 52.4297 585.993 51.9648 586.827H51.9375V585.631H50.8164V593ZM61.2412 593.068C62.3076 593.068 63.1484 592.604 63.627 591.756H63.6475V593H64.7822V582.705H63.5928V586.827H63.5654C63.1143 586.021 62.2666 585.562 61.2139 585.562C59.3818 585.562 58.083 587.066 58.083 589.315C58.083 591.564 59.3887 593.068 61.2412 593.068ZM61.4531 586.622C62.7314 586.622 63.5996 587.716 63.5996 589.315C63.5996 590.922 62.7314 592.009 61.4531 592.009C60.1611 592.009 59.2998 590.949 59.2998 589.315C59.2998 587.688 60.1611 586.622 61.4531 586.622ZM75.9111 588.03C75.7607 586.738 74.6465 585.562 72.8213 585.562C70.8047 585.562 69.458 587.053 69.458 589.315C69.458 591.633 70.8115 593.068 72.835 593.068C74.5166 593.068 75.7266 592.077 75.9248 590.642H74.7559C74.5508 591.53 73.8672 592.009 72.8418 592.009C71.5566 592.009 70.668 590.99 70.668 589.315C70.668 587.688 71.543 586.622 72.8281 586.622C73.9355 586.622 74.5918 587.244 74.7422 588.03H75.9111ZM80.1016 593.068C82.1729 593.068 83.499 591.599 83.499 589.315C83.499 587.025 82.1729 585.562 80.1016 585.562C78.0303 585.562 76.7041 587.025 76.7041 589.315C76.7041 591.599 78.0303 593.068 80.1016 593.068ZM80.1016 592.009C78.7344 592.009 77.9141 591.004 77.9141 589.315C77.9141 587.627 78.7275 586.622 80.1016 586.622C81.4756 586.622 82.2891 587.62 82.2891 589.315C82.2891 591.004 81.4756 592.009 80.1016 592.009ZM87.5459 593.068C88.6123 593.068 89.4531 592.604 89.9316 591.756H89.9521V593H91.0869V582.705H89.8975V586.827H89.8701C89.4189 586.021 88.5713 585.562 87.5186 585.562C85.6865 585.562 84.3877 587.066 84.3877 589.315C84.3877 591.564 85.6934 593.068 87.5459 593.068ZM87.7578 586.622C89.0361 586.622 89.9043 587.716 89.9043 589.315C89.9043 590.922 89.0361 592.009 87.7578 592.009C86.4658 592.009 85.6045 590.949 85.6045 589.315C85.6045 587.688 86.4658 586.622 87.7578 586.622ZM95.7148 586.608C96.877 586.608 97.6699 587.442 97.6973 588.693H93.6436C93.7256 587.449 94.5596 586.608 95.7148 586.608ZM97.6699 590.895C97.458 591.585 96.7402 592.022 95.8174 592.022C94.5049 592.022 93.6436 591.113 93.6436 589.712V589.644H98.9346V589.179C98.9346 586.95 97.7041 585.562 95.7354 585.562C93.7256 585.562 92.4131 587.06 92.4131 589.343C92.4131 591.626 93.7188 593.068 95.79 593.068C97.3623 593.068 98.6406 592.159 98.8457 590.895H97.6699ZM103.925 583.97V585.631H102.899V586.615H103.925V591.086C103.925 592.501 104.444 593.055 105.777 593.055C106.058 593.055 106.399 593.027 106.543 592.993V591.988C106.461 592.002 106.174 592.022 106.03 592.022C105.401 592.022 105.114 591.715 105.114 591.038V586.615H106.55V585.631H105.114V583.97H103.925ZM110.699 593.068C112.771 593.068 114.097 591.599 114.097 589.315C114.097 587.025 112.771 585.562 110.699 585.562C108.628 585.562 107.302 587.025 107.302 589.315C107.302 591.599 108.628 593.068 110.699 593.068ZM110.699 592.009C109.332 592.009 108.512 591.004 108.512 589.315C108.512 587.627 109.325 586.622 110.699 586.622C112.073 586.622 112.887 587.62 112.887 589.315C112.887 591.004 112.073 592.009 110.699 592.009Z" fill="#7D848D"/>
<path d="M324.826 596.164C327.123 596.164 328.449 594.175 328.449 591.058C328.449 587.961 327.116 585.972 324.826 585.972C322.536 585.972 321.189 587.975 321.189 591.064C321.189 594.182 322.522 596.164 324.826 596.164ZM324.826 595.091C323.281 595.091 322.427 593.519 322.427 591.058C322.427 588.651 323.302 587.052 324.826 587.052C326.351 587.052 327.212 588.638 327.212 591.064C327.212 593.525 326.364 595.091 324.826 595.091ZM332.243 596H333.433V586.136H332.229L329.604 588.022V589.321L332.216 587.441H332.243V596ZM336.912 594.359C337.356 594.359 337.691 594.018 337.691 593.58C337.691 593.136 337.356 592.801 336.912 592.801C336.475 592.801 336.133 593.136 336.133 593.58C336.133 594.018 336.475 594.359 336.912 594.359ZM336.912 589.328C337.356 589.328 337.691 588.986 337.691 588.549C337.691 588.104 337.356 587.77 336.912 587.77C336.475 587.77 336.133 588.104 336.133 588.549C336.133 588.986 336.475 589.328 336.912 589.328ZM339.428 588.979V588.986H340.617V588.979C340.617 587.879 341.492 587.045 342.647 587.045C343.734 587.045 344.603 587.804 344.603 588.754C344.603 589.574 344.288 590.101 342.962 591.495L339.489 595.152V596H345.997V594.906H341.191V594.879L343.687 592.302C345.334 590.6 345.833 589.779 345.833 588.679C345.833 587.168 344.445 585.972 342.682 585.972C340.822 585.972 339.428 587.257 339.428 588.979ZM350.987 596.171C353.011 596.171 354.48 594.749 354.48 592.801C354.48 590.928 353.086 589.54 351.206 589.54C349.982 589.54 348.896 590.176 348.451 591.14H348.431C348.472 588.515 349.408 587.052 351.056 587.052C352.033 587.052 352.826 587.626 353.093 588.521H354.344C354.029 586.97 352.744 585.965 351.069 585.965C348.656 585.965 347.241 587.913 347.241 591.235C347.241 592.302 347.398 593.19 347.727 593.949C348.335 595.371 349.511 596.171 350.987 596.171ZM350.974 595.077C349.709 595.077 348.725 594.072 348.725 592.808C348.725 591.55 349.688 590.62 350.994 590.62C352.3 590.62 353.229 591.55 353.229 592.842C353.229 594.086 352.231 595.077 350.974 595.077Z" fill="#7D848D"/>
<path d="M27.4512 377.674C23.3398 377.674 20.7617 380.477 20.7617 384.959C20.7617 389.441 23.3398 392.234 27.4512 392.234C31.5527 392.234 34.1309 389.441 34.1309 384.959C34.1309 380.477 31.5527 377.674 27.4512 377.674ZM27.4512 379.822C29.9609 379.822 31.5625 381.814 31.5625 384.959C31.5625 388.094 29.9609 390.086 27.4512 390.086C24.9316 390.086 23.3398 388.094 23.3398 384.959C23.3398 381.814 24.9316 379.822 27.4512 379.822ZM41.3477 392V380.037H45.625V377.908H34.5508V380.037H38.8281V392H41.3477ZM47.334 377.908V392H49.8535V387.342H52.9102C55.7617 387.342 57.7539 385.438 57.7539 382.625C57.7539 379.812 55.8105 377.908 53.0176 377.908H47.334ZM49.8535 379.969H52.3535C54.1602 379.969 55.1953 380.936 55.1953 382.625C55.1953 384.334 54.1504 385.311 52.3438 385.311H49.8535V379.969ZM70.1465 392.234C73.4766 392.234 75.7812 390.408 76.2207 387.391H73.75C73.3594 389.09 72.0215 390.096 70.1562 390.096C67.7148 390.096 66.1719 388.113 66.1719 384.949C66.1719 381.805 67.7246 379.812 70.1465 379.812C71.9727 379.812 73.4082 380.975 73.7402 382.742H76.2207C75.9082 379.715 73.418 377.674 70.1465 377.674C66.1426 377.674 63.5938 380.457 63.5938 384.949C63.5938 389.471 66.123 392.234 70.1465 392.234ZM82.6172 392.156C85.7812 392.156 87.7637 390.066 87.7637 386.658C87.7637 383.279 85.7617 381.18 82.6172 381.18C79.4922 381.18 77.4805 383.289 77.4805 386.658C77.4805 390.066 79.4727 392.156 82.6172 392.156ZM82.6172 390.213C80.957 390.213 79.9512 388.904 79.9512 386.668C79.9512 384.441 80.957 383.123 82.6172 383.123C84.2871 383.123 85.293 384.432 85.293 386.668C85.293 388.904 84.2969 390.213 82.6172 390.213ZM93.3887 392.117C94.9512 392.117 96.1816 391.375 96.7578 390.184H96.8066V392H99.1895V377.254H96.7578V383.123H96.6992C96.123 381.941 94.9219 381.209 93.3789 381.209C90.7324 381.209 88.9453 383.348 88.9453 386.658C88.9453 389.979 90.7227 392.117 93.3887 392.117ZM94.1016 383.23C95.7031 383.23 96.7676 384.607 96.7676 386.668C96.7676 388.738 95.7129 390.096 94.1016 390.096C92.4902 390.096 91.4355 388.768 91.4355 386.668C91.4355 384.578 92.4902 383.23 94.1016 383.23ZM105.898 383.074C107.344 383.074 108.34 384.09 108.389 385.633H103.33C103.438 384.109 104.473 383.074 105.898 383.074ZM108.398 388.826C108.115 389.705 107.207 390.262 106.035 390.262C104.404 390.262 103.311 389.119 103.311 387.4V387.254H110.781V386.453C110.781 383.221 108.887 381.18 105.898 381.18C102.842 381.18 100.879 383.348 100.879 386.707C100.879 390.066 102.832 392.156 105.986 392.156C108.477 392.156 110.371 390.799 110.684 388.826H108.398Z" fill="#1B1E28"/>
<rect x="17" y="429" width="46.1176" height="56" rx="12" fill="#F7F7F9"/>
<path d="M40.0589 463.237C42.8714 463.237 44.8577 461.726 44.8577 459.572C44.8577 457.964 43.7239 456.663 42.0364 456.312V456.268C43.4427 455.863 44.3392 454.773 44.3392 453.429C44.3392 451.486 42.555 450.08 40.0589 450.08C37.5716 450.08 35.7698 451.495 35.7698 453.42C35.7698 454.782 36.6751 455.881 38.0814 456.268V456.312C36.4026 456.663 35.2601 457.955 35.2601 459.572C35.2601 461.717 37.2288 463.237 40.0589 463.237ZM40.0589 461.655C38.4417 461.655 37.2903 460.724 37.2903 459.432C37.2903 458.131 38.4417 457.19 40.0589 457.19C41.6761 457.19 42.8187 458.122 42.8187 459.432C42.8187 460.724 41.6761 461.655 40.0589 461.655ZM40.0589 455.608C38.679 455.608 37.721 454.782 37.721 453.631C37.721 452.471 38.679 451.645 40.0589 451.645C41.43 451.645 42.3968 452.471 42.3968 453.631C42.3968 454.782 41.4212 455.608 40.0589 455.608Z" fill="#1B1E28"/>
<rect x="74.9766" y="429" width="46.1176" height="56" rx="12" fill="#F7F7F9"/>
<path d="M98.2549 463.246C100.944 463.246 102.887 461.4 102.887 458.86C102.887 456.452 101.094 454.668 98.6768 454.668C97.0948 454.668 95.7501 455.494 95.1963 456.725H95.1612C95.17 453.534 96.3301 451.724 98.3253 451.724C99.4854 451.724 100.435 452.4 100.742 453.438H102.711C102.324 451.416 100.584 450.071 98.3428 450.071C95.17 450.071 93.2715 452.585 93.2715 456.83C93.2715 458.315 93.5352 459.563 94.0538 460.574C94.8799 462.288 96.3829 463.246 98.2549 463.246ZM98.2374 461.585C96.7256 461.585 95.5567 460.39 95.5567 458.887C95.5567 457.384 96.7081 456.276 98.2549 456.276C99.8106 456.276 100.927 457.384 100.927 458.922C100.927 460.407 99.7315 461.585 98.2374 461.585Z" fill="#1B1E28"/>
<rect x="306.882" y="429" width="46.1176" height="56" rx="12" fill="#F7F7F9"/>
<path d="M330.161 463.246C332.85 463.246 334.793 461.4 334.793 458.86C334.793 456.452 333 454.668 330.583 454.668C329.001 454.668 327.656 455.494 327.102 456.725H327.067C327.076 453.534 328.236 451.724 330.231 451.724C331.391 451.724 332.341 452.4 332.648 453.438H334.617C334.23 451.416 332.49 450.071 330.249 450.071C327.076 450.071 325.178 452.585 325.178 456.83C325.178 458.315 325.441 459.563 325.96 460.574C326.786 462.288 328.289 463.246 330.161 463.246ZM330.143 461.585C328.632 461.585 327.463 460.39 327.463 458.887C327.463 457.384 328.614 456.276 330.161 456.276C331.717 456.276 332.833 457.384 332.833 458.922C332.833 460.407 331.638 461.585 330.143 461.585Z" fill="#1B1E28"/>
<rect x="132.953" y="429" width="46.1176" height="56" rx="12" fill="#F7F7F9"/>
<path d="M155.713 463.237C158.895 463.237 160.775 460.724 160.775 456.479C160.775 454.993 160.512 453.745 159.993 452.734C159.176 451.029 157.664 450.071 155.783 450.071C153.103 450.071 151.151 451.917 151.151 454.457C151.151 456.865 152.953 458.649 155.361 458.649C156.996 458.649 158.332 457.823 158.842 456.575H158.851H158.859C158.868 456.575 158.877 456.575 158.877 456.575C158.877 459.774 157.717 461.603 155.739 461.603C154.57 461.603 153.604 460.908 153.305 459.871H151.327C151.705 461.884 153.454 463.237 155.713 463.237ZM155.783 457.041C154.245 457.041 153.111 455.916 153.111 454.396C153.111 452.919 154.298 451.75 155.81 451.75C157.321 451.75 158.499 452.928 158.499 454.431C158.499 455.925 157.339 457.041 155.783 457.041Z" fill="#1B1E28"/>
<rect x="248.906" y="429" width="46.1176" height="56" rx="12" fill="#F7F7F9"/>
<path d="M271.666 463.237C274.847 463.237 276.728 460.724 276.728 456.479C276.728 454.993 276.465 453.745 275.946 452.734C275.129 451.029 273.617 450.071 271.736 450.071C269.055 450.071 267.104 451.917 267.104 454.457C267.104 456.865 268.906 458.649 271.314 458.649C272.949 458.649 274.285 457.823 274.795 456.575H274.804H274.812C274.821 456.575 274.83 456.575 274.83 456.575C274.83 459.774 273.67 461.603 271.692 461.603C270.523 461.603 269.556 460.908 269.258 459.871H267.28C267.658 461.884 269.407 463.237 271.666 463.237ZM271.736 457.041C270.198 457.041 269.064 455.916 269.064 454.396C269.064 452.919 270.251 451.75 271.763 451.75C273.274 451.75 274.452 452.928 274.452 454.431C274.452 455.925 273.292 457.041 271.736 457.041Z" fill="#1B1E28"/>
<rect x="190.929" y="429" width="46.1176" height="56" rx="12" fill="#F7F7F9"/>
<path d="M213.791 463.237C216.524 463.237 218.44 461.436 218.44 458.834C218.44 456.373 216.691 454.589 214.257 454.589C213.017 454.589 211.98 455.072 211.427 455.872H211.383L211.734 451.979H217.702V450.317H210.152L209.484 457.489H211.286C211.778 456.654 212.727 456.153 213.826 456.153C215.408 456.153 216.515 457.296 216.515 458.887C216.515 460.478 215.408 461.594 213.808 461.594C212.393 461.594 211.312 460.732 211.172 459.476H209.291C209.405 461.69 211.26 463.237 213.791 463.237Z" fill="#1B1E28"/>
<rect x="121" y="799" width="134" height="5" rx="2.5" fill="#1B1E28"/>
<rect opacity="0.35" x="332.833" y="19.8334" width="21" height="10.3333" rx="2.16667" stroke="#1B1E28"/>
<path opacity="0.4" d="M355.333 23.0001V27.0001C356.138 26.6613 356.661 25.8732 356.661 25.0001C356.661 24.1269 356.138 23.3388 355.333 23.0001Z" fill="#1B1E28"/>
<rect x="334.333" y="21.3334" width="18" height="7.33333" rx="1.33333" fill="#1B1E28"/>
<path fill-rule="evenodd" clip-rule="evenodd" d="M317.738 28.4267C318.97 27.3445 320.773 27.3445 322.005 28.4267C322.067 28.485 322.103 28.5675 322.104 28.6543C322.106 28.7409 322.073 28.8241 322.014 28.8848L320.086 30.9072C320.029 30.9666 319.952 30.9999 319.872 31C319.792 31 319.715 30.9665 319.658 30.9072L317.729 28.8848C317.67 28.824 317.637 28.7408 317.639 28.6543C317.64 28.5676 317.676 28.4849 317.738 28.4267ZM315.166 25.7295C317.819 23.1651 321.928 23.1651 324.581 25.7295C324.641 25.7896 324.675 25.8726 324.676 25.959C324.677 26.0453 324.644 26.1282 324.585 26.1894L323.471 27.3603C323.356 27.4798 323.17 27.4816 323.052 27.3652C322.181 26.5457 321.047 26.0917 319.872 26.0918C318.698 26.0923 317.565 26.5461 316.694 27.3652C316.577 27.4815 316.391 27.4796 316.276 27.3603L315.162 26.1894C315.103 26.1282 315.071 26.0454 315.071 25.959C315.072 25.8725 315.106 25.7896 315.166 25.7295ZM312.593 23.039C316.662 18.9869 323.081 18.9871 327.15 23.039C327.209 23.0992 327.243 23.1817 327.243 23.2676C327.244 23.3533 327.211 23.4362 327.153 23.4971L326.037 24.667C325.922 24.7869 325.736 24.7881 325.619 24.6699C324.069 23.1384 322.011 22.2843 319.872 22.2842C317.733 22.2842 315.675 23.1385 314.125 24.6699C314.008 24.7883 313.821 24.7873 313.706 24.667L312.59 23.4971C312.532 23.4362 312.5 23.3533 312.5 23.2676C312.501 23.1817 312.534 23.0992 312.593 23.039Z" fill="#1B1E28"/>
<path d="M292.307 26.667C292.838 26.667 293.269 27.1147 293.269 27.667V29.667C293.269 30.2191 292.838 30.667 292.307 30.667H291.346C290.815 30.667 290.385 30.2191 290.385 29.667V27.667C290.385 27.1147 290.815 26.667 291.346 26.667H292.307ZM296.795 24.667C297.326 24.667 297.757 25.1147 297.757 25.667V29.667C297.756 30.2191 297.326 30.667 296.795 30.667H295.833C295.302 30.6667 294.872 30.219 294.872 29.667V25.667C294.872 25.1149 295.302 24.6673 295.833 24.667H296.795ZM301.282 22.333C301.813 22.333 302.244 22.7809 302.244 23.333V29.667C302.244 30.2191 301.813 30.667 301.282 30.667H300.321C299.79 30.667 299.359 30.2191 299.359 29.667V23.333C299.359 22.7809 299.79 22.333 300.321 22.333H301.282ZM305.769 20C306.3 20 306.731 20.4477 306.731 21V29.667C306.731 30.2191 306.3 30.667 305.769 30.667H304.808C304.277 30.667 303.847 30.2191 303.846 29.667V21C303.846 20.4477 304.277 20 304.808 20H305.769Z" fill="#1B1E28"/>
<path d="M36.7646 18.1675C34.4722 18.1675 32.8389 19.7349 32.8389 21.8809V21.8955C32.8389 23.9023 34.2598 25.3818 36.2886 25.3818C37.7388 25.3818 38.6616 24.6421 39.0498 23.8071H39.1963C39.1963 23.8877 39.189 23.9683 39.189 24.0488C39.1084 26.0703 38.3979 27.7109 36.7207 27.7109C35.7905 27.7109 35.1387 27.2275 34.8604 26.4878L34.8384 26.4146H32.978L32.9927 26.4951C33.3296 28.1138 34.7798 29.2637 36.7207 29.2637C39.3794 29.2637 40.9834 27.1543 40.9834 23.5947V23.5801C40.9834 19.7715 39.0205 18.1675 36.7646 18.1675ZM36.7573 23.9316C35.5562 23.9316 34.6846 23.0527 34.6846 21.8296V21.8149C34.6846 20.6357 35.6147 19.7056 36.7793 19.7056C37.9512 19.7056 38.8667 20.6504 38.8667 21.8589V21.8735C38.8667 23.0674 37.9512 23.9316 36.7573 23.9316ZM44.3086 22.1519C44.9824 22.1519 45.4731 21.6392 45.4731 20.9946C45.4731 20.3428 44.9824 19.8374 44.3086 19.8374C43.6421 19.8374 43.144 20.3428 43.144 20.9946C43.144 21.6392 43.6421 22.1519 44.3086 22.1519ZM44.3086 27.5864C44.9824 27.5864 45.4731 27.0811 45.4731 26.4292C45.4731 25.7773 44.9824 25.272 44.3086 25.272C43.6421 25.272 43.144 25.7773 43.144 26.4292C43.144 27.0811 43.6421 27.5864 44.3086 27.5864ZM52.7607 29H54.5698V26.9712H55.9907V25.4111H54.5698V18.4312H51.8965C50.4609 20.6138 48.9595 23.0454 47.5898 25.4258V26.9712H52.7607V29ZM49.3477 25.4551V25.3452C50.373 23.5508 51.5962 21.5952 52.6802 19.9399H52.79V25.4551H49.3477ZM60.3706 29H62.2603V18.4312H60.3779L57.6167 20.3721V22.1519L60.2461 20.2915H60.3706V29Z" fill="#1B1E28"/>
</g>
<defs>
<clipPath id="bgblur_1_2101_6804_clip_path" transform="translate(10 -33)"><circle cx="42" cy="85" r="22"/>
</clipPath><clipPath id="clip0_2101_6804">
<rect width="375" height="812" rx="30" fill="white"/>
</clipPath>
</defs>
</svg>
